<svg xmlns="http://www.w3.org/2000/svg" version="1.1" xmlns:xlink="http://www.w3.org/1999/xlink" xmlns:svgjs="http://svgjs.dev/svgjs" width="100%" height="100%" viewBox="0 0 1500 800"><rect width="100%" height="100%" fill="#ffffff"></rect><g transform="matrix(0.6666666666666666,0,0,0.6666666666666666,249.39393939393938,582.8107759469572)"><svg viewBox="0 0 396 132" data-background-color="#000000" preserveAspectRatio="xMidYMid meet" height="500" width="1500" xmlns="http://www.w3.org/2000/svg" xmlns:xlink="http://www.w3.org/1999/xlink"><g id="tight-bounds" transform="matrix(1,0,0,1,0.2400000000000091,0.2069327250050037)"><svg viewBox="0 0 395.52 131.58613454999" height="131.58613454999" width="395.52"><g><svg viewBox="0 0 652.3749242311351 217.03957968476354" height="131.58613454999" width="395.52"><g transform="matrix(1,0,0,1,256.85492423113516,0)"><svg viewBox="0 0 395.52 217.03957968476354" height="217.03957968476354" width="395.52"><g id="textblocktransform"><svg viewBox="0 0 395.52 217.03957968476354" height="217.03957968476354" width="395.52" id="textblock"><g><svg viewBox="0 0 395.52 217.03957968476354" height="217.03957968476354" width="395.52"><g transform="matrix(1,0,0,1,0,0)"><svg width="395.52" viewBox="1.049999999999999 -36.3 172.2 90.9" height="217.03957968476354" data-palette-color="#ffffff"><svg></svg><svg></svg><g class="wordmark-text-0" data-fill-palette-color="primary" id="text-0"><path d="M15.25 0.2v0c-0.967 0.033-1.933-0.05-2.9-0.25-0.967-0.2-1.783-0.617-2.45-1.25v0c0.033-0.833 0.027-2.067-0.02-3.7-0.053-1.633-0.147-3.46-0.28-5.48-0.133-2.013-0.343-4.053-0.63-6.12-0.28-2.067-0.643-3.977-1.09-5.73-0.453-1.747-0.997-3.153-1.63-4.22-0.633-1.067-1.383-1.6-2.25-1.6v0c-0.767 0-1.633 0.417-2.6 1.25v0l-0.35-0.3c0.933-2.867 2.16-5.05 3.68-6.55 1.513-1.5 3.087-2.25 4.72-2.25v0c1.433 0 2.633 0.5 3.6 1.5 0.967 1 1.743 2.34 2.33 4.02 0.58 1.687 0.997 3.57 1.25 5.65 0.247 2.087 0.37 4.213 0.37 6.38v0c0 1.733-0.067 3.433-0.2 5.1-0.133 1.667-0.317 3.2-0.55 4.6v0c1.767-2.233 3.25-4.673 4.45-7.32 1.2-2.653 2.117-5.29 2.75-7.91 0.633-2.613 0.95-4.97 0.95-7.07v0c0-0.4-0.017-0.807-0.05-1.22-0.033-0.42-0.083-0.797-0.15-1.13v0c0.7-0.9 1.6-1.593 2.7-2.08 1.1-0.48 2.2-0.72 3.3-0.72v0c1.067 0 2 0.227 2.8 0.68 0.8 0.447 1.3 1.153 1.5 2.12v0c-0.433 3.167-1.29 6.333-2.57 9.5-1.287 3.167-2.847 6.223-4.68 9.17-1.833 2.953-3.79 5.697-5.87 8.23-2.087 2.533-4.13 4.767-6.13 6.7zM38.95 0.25v0c-0.933 0-1.757-0.393-2.47-1.18-0.72-0.78-1.08-2.237-1.08-4.37v0c0-0.367 0.007-0.693 0.02-0.98 0.02-0.28 0.03-0.487 0.03-0.62v0c0.133-1.333 0.323-2.993 0.57-4.98 0.253-1.98 0.547-4.063 0.88-6.25 0.333-2.18 0.673-4.287 1.02-6.32 0.353-2.033 0.68-3.81 0.98-5.33 0.3-1.513 0.55-2.553 0.75-3.12v0c0.367-1 1.027-1.79 1.98-2.37 0.947-0.587 1.92-0.88 2.92-0.88v0c0.867 0 1.657 0.25 2.37 0.75 0.72 0.5 1.213 1.35 1.48 2.55v0c-0.2 0.667-0.517 1.84-0.95 3.52-0.433 1.687-0.9 3.747-1.4 6.18-0.5 2.433-0.973 5.117-1.42 8.05-0.453 2.933-0.813 6-1.08 9.2v0c-0.033 0.567-0.083 1.223-0.15 1.97-0.067 0.753-0.117 1.513-0.15 2.28v0c-0.4 0.433-1 0.857-1.8 1.27-0.8 0.42-1.633 0.63-2.5 0.63zM59.8 0.3v0c-2.233 0-4.077-0.383-5.53-1.15-1.447-0.767-2.52-1.75-3.22-2.95-0.7-1.2-1.05-2.433-1.05-3.7v0c0-1.233 0.3-2.41 0.9-3.53 0.6-1.113 1.46-2.037 2.58-2.77 1.113-0.733 2.437-1.1 3.97-1.1v0c-0.033 0.3-0.05 0.573-0.05 0.82 0 0.253 0 0.38 0 0.38v0c0 2.233 0.217 3.99 0.65 5.27 0.433 1.287 0.983 2.203 1.65 2.75 0.667 0.553 1.35 0.83 2.05 0.83v0c1.067 0 2.017-0.427 2.85-1.28 0.833-0.847 1.25-1.837 1.25-2.97v0c0-1.267-0.543-2.383-1.63-3.35-1.08-0.967-2.453-2.033-4.12-3.2v0c-0.933-0.7-1.923-1.493-2.97-2.38-1.053-0.88-1.947-1.93-2.68-3.15-0.733-1.213-1.1-2.653-1.1-4.32v0c0-1.733 0.41-3.267 1.23-4.6 0.813-1.333 1.897-2.46 3.25-3.38 1.347-0.913 2.827-1.613 4.44-2.1 1.62-0.48 3.23-0.72 4.83-0.72v0c1.967 0 3.583 0.317 4.85 0.95 1.267 0.633 2.217 1.45 2.85 2.45 0.633 1 0.95 2.033 0.95 3.1v0c0 1-0.277 1.957-0.83 2.87-0.547 0.92-1.353 1.663-2.42 2.23-1.067 0.567-2.383 0.85-3.95 0.85v0c0.1-0.467 0.167-0.893 0.2-1.28 0.033-0.38 0.05-0.72 0.05-1.02v0c0-1.667-0.36-2.86-1.08-3.58-0.713-0.713-1.503-1.07-2.37-1.07v0c-0.833 0-1.633 0.307-2.4 0.92-0.767 0.62-1.15 1.613-1.15 2.98v0c0 1.167 0.31 2.167 0.93 3 0.613 0.833 1.413 1.567 2.4 2.2 0.98 0.633 2.02 1.25 3.12 1.85v0c1.133 0.6 2.227 1.257 3.28 1.97 1.047 0.72 1.92 1.563 2.62 2.53 0.7 0.967 1.05 2.183 1.05 3.65v0c0 1.533-0.417 3.023-1.25 4.47-0.833 1.453-1.967 2.737-3.4 3.85-1.433 1.12-3.073 2.013-4.92 2.68-1.853 0.667-3.797 1-5.83 1zM89.45 0.2v0c-1.033 0-1.943-0.267-2.73-0.8-0.78-0.533-1.153-1.333-1.12-2.4v0c0.067-1.867 0.207-3.933 0.42-6.2 0.22-2.267 0.48-4.577 0.78-6.93 0.3-2.347 0.607-4.603 0.92-6.77 0.32-2.167 0.613-4.1 0.88-5.8v0c-0.6-0.067-1.183-0.117-1.75-0.15-0.567-0.033-1.083-0.05-1.55-0.05v0c-1.4 0-2.66 0.133-3.78 0.4-1.113 0.267-2.053 0.733-2.82 1.4v0c0-2.1 0.173-3.81 0.52-5.13 0.353-1.313 1.003-2.27 1.95-2.87 0.953-0.6 2.347-0.9 4.18-0.9v0c1.333 0 2.827 0.107 4.48 0.32 1.647 0.22 3.32 0.447 5.02 0.68 1.7 0.233 3.283 0.35 4.75 0.35v0c1.2 0 2.277-0.117 3.23-0.35 0.947-0.233 1.67-0.65 2.17-1.25v0c0.733 0.233 1.3 0.74 1.7 1.52 0.4 0.787 0.6 1.647 0.6 2.58v0c0 0.833-0.183 1.64-0.55 2.42-0.367 0.787-0.95 1.437-1.75 1.95-0.8 0.52-1.883 0.78-3.25 0.78v0c-0.633 0-1.41-0.06-2.33-0.18-0.913-0.113-1.887-0.237-2.92-0.37v0c-0.367 2-0.74 4.39-1.12 7.17-0.387 2.787-0.707 5.78-0.96 8.98-0.247 3.2-0.403 6.45-0.47 9.75v0c-0.6 0.633-1.307 1.1-2.12 1.4-0.82 0.3-1.613 0.45-2.38 0.45zM111 0.2v0c-1.033 0-1.95-0.25-2.75-0.75-0.8-0.5-1.2-1.333-1.2-2.5v0c0-1.833 0.39-3.7 1.17-5.6 0.787-1.9 1.757-3.777 2.91-5.63 1.147-1.847 2.293-3.653 3.44-5.42 1.153-1.767 2.12-3.45 2.9-5.05 0.787-1.6 1.18-3.083 1.18-4.45v0c0-1.1-0.267-1.65-0.8-1.65v0c-0.367 0-0.783 0.29-1.25 0.87-0.467 0.587-0.8 1.447-1 2.58v0l-0.55-0.1c0-1.9 0.45-3.51 1.35-4.83 0.9-1.313 2.05-2.303 3.45-2.97 1.4-0.667 2.833-1 4.3-1v0c1.7 0 3.293 0.483 4.78 1.45 1.48 0.967 2.503 2.5 3.07 4.6v0c0.233 0.833 0.41 1.767 0.53 2.8 0.113 1.033 0.187 1.923 0.22 2.67 0.033 0.753 0.05 1.13 0.05 1.13v0c0.067 2.7 0.123 4.983 0.17 6.85 0.053 1.867 0.147 3.433 0.28 4.7 0.133 1.267 0.317 2.333 0.55 3.2v0c0.233 0.833 0.54 1.507 0.92 2.02 0.387 0.52 0.88 0.78 1.48 0.78v0c0.567 0 1.06-0.167 1.48-0.5 0.413-0.333 0.687-0.65 0.82-0.95v0l0.35 0.25c0 1.533-0.3 2.867-0.9 4-0.6 1.133-1.383 2-2.35 2.6-0.967 0.6-1.983 0.9-3.05 0.9v0c-1.033 0-2.04-0.31-3.02-0.93-0.987-0.613-1.847-1.57-2.58-2.87-0.733-1.3-1.217-2.983-1.45-5.05v0c-1.033-0.067-2.043-0.127-3.03-0.18-0.98-0.047-1.87-0.07-2.67-0.07v0c-0.533 0-1.043 0.007-1.53 0.02-0.48 0.02-0.953 0.047-1.42 0.08v0c-0.3 1.033-0.54 2.073-0.72 3.12-0.187 1.053-0.28 2.08-0.28 3.08v0c0 0.767-0.5 1.423-1.5 1.97-1 0.553-2.117 0.83-3.35 0.83zM118.5-13.45v0c0.833-0.233 1.717-0.393 2.65-0.48 0.933-0.08 1.933-0.12 3-0.12v0h1.1c-0.067-2.467-0.16-5-0.28-7.6-0.113-2.6-0.537-5.017-1.27-7.25v0c-0.267 2.4-0.933 4.917-2 7.55-1.067 2.633-2.133 5.267-3.2 7.9z" fill="#000000" fill-rule="nonzero" stroke="none" stroke-width="1" stroke-linecap="butt" stroke-linejoin="miter" stroke-miterlimit="10" stroke-dasharray="" stroke-dashoffset="0" font-family="none" font-weight="none" font-size="none" text-anchor="none" style="mix-blend-mode: normal" data-fill-palette-color="primary" opacity="1"></path><path transform="translate(0,47)" d="M21.25 7.6v0c-0.233 0-0.457-0.007-0.67-0.02-0.22-0.02-0.447-0.047-0.68-0.08v0c-0.2-1.433-0.35-2.857-0.45-4.27-0.1-1.42-0.167-2.763-0.2-4.03v0c-1.6 0.733-3.25 1.1-4.95 1.1v0c-2.133 0-4.14-0.583-6.02-1.75-1.887-1.167-3.413-2.95-4.58-5.35-1.167-2.4-1.75-5.417-1.75-9.05v0c0-3.533 0.55-6.583 1.65-9.15 1.1-2.567 2.533-4.683 4.3-6.35 1.767-1.667 3.683-2.9 5.75-3.7 2.067-0.8 4.067-1.2 6-1.2v0c1.733 0 3.317 0.29 4.75 0.87 1.433 0.587 2.577 1.403 3.43 2.45 0.847 1.053 1.27 2.313 1.27 3.78v0c0 1.2-0.333 2.333-1 3.4-0.667 1.067-1.683 1.923-3.05 2.57-1.367 0.653-3.1 0.98-5.2 0.98v0c0.333-0.967 0.567-1.833 0.7-2.6 0.133-0.767 0.2-1.433 0.2-2v0c0-1.267-0.267-2.127-0.8-2.58-0.533-0.447-1.15-0.67-1.85-0.67v0c-1.367 0-2.6 0.617-3.7 1.85-1.1 1.233-1.967 2.84-2.6 4.82-0.633 1.987-0.95 4.113-0.95 6.38v0c0 3.233 0.633 5.767 1.9 7.6 1.267 1.833 2.85 2.75 4.75 2.75v0c0.733 0 1.5-0.15 2.3-0.45v0-0.05c0-2.5 0.227-4.493 0.68-5.98 0.447-1.48 1.03-2.537 1.75-3.17 0.713-0.633 1.453-0.95 2.22-0.95v0c0.833 0 1.627 0.283 2.38 0.85 0.747 0.567 1.37 1.29 1.87 2.17 0.5 0.887 0.75 1.847 0.75 2.88v0c0 0.933-0.257 1.873-0.77 2.82-0.52 0.953-1.397 1.813-2.63 2.58v0c-0.067 0.267-0.117 0.533-0.15 0.8-0.033 0.267-0.05 0.533-0.05 0.8v0c0 0.9 0.193 1.917 0.58 3.05 0.38 1.133 0.987 2.717 1.82 4.75v0c-0.2 0.767-0.657 1.467-1.37 2.1-0.72 0.633-1.57 1.133-2.55 1.5-0.987 0.367-2.013 0.55-3.08 0.55zM54.95 0.35v0c-1.2 0-2.557-0.217-4.07-0.65-1.52-0.433-3.103-0.91-4.75-1.43-1.653-0.513-3.297-0.887-4.93-1.12v0c-1.133 1.067-2.193 1.823-3.18 2.27-0.98 0.453-1.853 0.68-2.62 0.68v0c-0.967 0-1.783-0.283-2.45-0.85-0.667-0.567-1.167-1.293-1.5-2.18-0.333-0.88-0.5-1.787-0.5-2.72v0c0-0.967 0.177-1.883 0.53-2.75 0.347-0.867 0.887-1.577 1.62-2.13 0.733-0.547 1.667-0.82 2.8-0.82v0c0.233 0 0.483 0.017 0.75 0.05 0.267 0.033 0.55 0.083 0.85 0.15v0c0.633-1.933 1.19-4.073 1.67-6.42 0.487-2.353 0.873-4.663 1.16-6.93 0.28-2.267 0.42-4.233 0.42-5.9v0c0-0.667-0.033-1.143-0.1-1.43-0.067-0.28-0.183-0.57-0.35-0.87v0l-0.05-0.15c0.4-1.067 1.067-1.9 2-2.5 0.933-0.6 1.917-0.9 2.95-0.9v0c1.133 0 2.067 0.41 2.8 1.23 0.733 0.813 1.1 2.17 1.1 4.07v0c0 1.2-0.143 2.69-0.43 4.47-0.28 1.787-0.67 3.703-1.17 5.75-0.5 2.053-1.05 4.08-1.65 6.08-0.6 2-1.2 3.783-1.8 5.35v0c1.467 0.333 2.943 0.717 4.43 1.15 1.48 0.433 2.937 0.65 4.37 0.65v0c1.1 0 2.16-0.2 3.18-0.6 1.013-0.4 1.97-1.133 2.87-2.2v0c0.667 0.433 1.16 1.05 1.48 1.85 0.313 0.8 0.47 1.65 0.47 2.55v0c0 1-0.207 1.973-0.62 2.92-0.42 0.953-1.063 1.747-1.93 2.38-0.867 0.633-1.983 0.95-3.35 0.95zM72.75 0.35v0c-2.233 0-4.083-0.41-5.55-1.23-1.467-0.813-2.55-1.88-3.25-3.2-0.7-1.313-1.05-2.737-1.05-4.27v0c0-1.367 0.267-2.717 0.8-4.05 0.533-1.333 1.327-2.55 2.38-3.65 1.047-1.1 2.32-1.967 3.82-2.6v0c-1.367-0.867-2.39-1.91-3.07-3.13-0.687-1.213-1.03-2.487-1.03-3.82v0c0-1.733 0.567-3.417 1.7-5.05 1.133-1.633 2.783-2.983 4.95-4.05 2.167-1.067 4.767-1.6 7.8-1.6v0c2.1 0 3.777 0.26 5.03 0.78 1.247 0.513 2.153 1.18 2.72 2 0.567 0.813 0.85 1.687 0.85 2.62v0c0 1.067-0.333 2.123-1 3.17-0.667 1.053-1.627 1.913-2.88 2.58-1.247 0.667-2.77 1-4.57 1v0c0.533-1.567 0.8-2.867 0.8-3.9v0c0-1.033-0.217-1.783-0.65-2.25-0.433-0.467-0.967-0.7-1.6-0.7v0c-0.667 0-1.373 0.25-2.12 0.75-0.753 0.5-1.38 1.2-1.88 2.1-0.5 0.9-0.75 1.95-0.75 3.15v0c0 0.633 0.1 1.34 0.3 2.12 0.2 0.787 0.517 1.563 0.95 2.33v0c0.733-0.467 1.407-0.81 2.02-1.03 0.62-0.213 1.18-0.32 1.68-0.32v0c1.033 0 1.783 0.357 2.25 1.07 0.467 0.72 0.7 1.53 0.7 2.43v0c0 1.067-0.323 2.083-0.97 3.05-0.653 0.967-1.613 1.45-2.88 1.45v0c-1.167 0-2.533-0.55-4.1-1.65v0c-1.833 1.3-2.75 2.833-2.75 4.6v0c0 1.367 0.423 2.4 1.27 3.1 0.853 0.7 1.947 1.05 3.28 1.05v0c1.7 0 3.6-0.593 5.7-1.78 2.1-1.18 3.967-2.953 5.6-5.32v0l0.4 0.25c-0.067 2.333-0.543 4.373-1.43 6.12-0.88 1.753-2.027 3.213-3.44 4.38-1.42 1.167-2.997 2.04-4.73 2.62-1.733 0.587-3.5 0.88-5.3 0.88zM93.75 0.2v0c-1.033 0-1.95-0.25-2.75-0.75-0.8-0.5-1.2-1.333-1.2-2.5v0c0-1.833 0.39-3.7 1.17-5.6 0.787-1.9 1.757-3.777 2.91-5.63 1.147-1.847 2.293-3.653 3.44-5.42 1.153-1.767 2.12-3.45 2.9-5.05 0.787-1.6 1.18-3.083 1.18-4.45v0c0-1.1-0.267-1.65-0.8-1.65v0c-0.367 0-0.783 0.29-1.25 0.87-0.467 0.587-0.8 1.447-1 2.58v0l-0.55-0.1c0-1.9 0.45-3.51 1.35-4.83 0.9-1.313 2.05-2.303 3.45-2.97 1.4-0.667 2.833-1 4.3-1v0c1.7 0 3.29 0.483 4.77 1.45 1.487 0.967 2.513 2.5 3.08 4.6v0c0.233 0.833 0.407 1.767 0.52 2.8 0.12 1.033 0.197 1.923 0.23 2.67 0.033 0.753 0.05 1.13 0.05 1.13v0c0.067 2.7 0.123 4.983 0.17 6.85 0.053 1.867 0.147 3.433 0.28 4.7 0.133 1.267 0.317 2.333 0.55 3.2v0c0.233 0.833 0.54 1.507 0.92 2.02 0.387 0.52 0.88 0.78 1.48 0.78v0c0.567 0 1.057-0.167 1.47-0.5 0.42-0.333 0.697-0.65 0.83-0.95v0l0.35 0.25c0 1.533-0.3 2.867-0.9 4-0.6 1.133-1.383 2-2.35 2.6-0.967 0.6-1.983 0.9-3.05 0.9v0c-1.033 0-2.043-0.31-3.03-0.93-0.98-0.613-1.837-1.57-2.57-2.87-0.733-1.3-1.217-2.983-1.45-5.05v0c-1.033-0.067-2.043-0.127-3.03-0.18-0.98-0.047-1.87-0.07-2.67-0.07v0c-0.533 0-1.043 0.007-1.53 0.02-0.48 0.02-0.953 0.047-1.42 0.08v0c-0.3 1.033-0.54 2.073-0.72 3.12-0.187 1.053-0.28 2.08-0.28 3.08v0c0 0.767-0.5 1.423-1.5 1.97-1 0.553-2.117 0.83-3.35 0.83zM101.25-13.45v0c0.833-0.233 1.717-0.393 2.65-0.48 0.933-0.08 1.933-0.12 3-0.12v0h1.1c-0.067-2.467-0.16-5-0.28-7.6-0.113-2.6-0.537-5.017-1.27-7.25v0c-0.267 2.4-0.933 4.917-2 7.55-1.067 2.633-2.133 5.267-3.2 7.9zM162 0v0c-1.067 0-2.09-0.3-3.07-0.9-0.987-0.6-1.78-1.55-2.38-2.85-0.6-1.3-0.9-2.967-0.9-5v0c0-1.667 0.2-3.543 0.6-5.63 0.4-2.08 0.923-4.17 1.57-6.27 0.653-2.1 1.363-4 2.13-5.7v0c-2.3 1.533-4.317 3.65-6.05 6.35-1.733 2.7-3.233 5.833-4.5 9.4v0c0.267 1.067 0.483 2.067 0.65 3 0.167 0.933 0.25 1.783 0.25 2.55v0c0 1.467-0.35 2.617-1.05 3.45-0.7 0.833-1.917 1.25-3.65 1.25v0c-1.533 0-2.66-0.343-3.38-1.03-0.713-0.68-1.07-1.637-1.07-2.87v0c0-0.8 0.14-1.717 0.42-2.75 0.287-1.033 0.697-2.15 1.23-3.35v0c-0.6-1.767-1.333-3.757-2.2-5.97-0.867-2.22-2.083-4.647-3.65-7.28v0c-0.467 1.967-0.94 3.923-1.42 5.87-0.487 1.953-0.89 3.753-1.21 5.4-0.313 1.653-0.47 3.047-0.47 4.18v0c0 1.833 0.5 2.75 1.5 2.75v0l0.1 0.1c0 1.1-0.273 2.04-0.82 2.82-0.553 0.787-1.253 1.387-2.1 1.8-0.853 0.42-1.747 0.63-2.68 0.63v0c-0.9 0-1.777-0.217-2.63-0.65-0.847-0.433-1.537-1.11-2.07-2.03-0.533-0.913-0.8-2.087-0.8-3.52v0c0-1.367 0.24-2.86 0.72-4.48 0.487-1.613 1.097-3.263 1.83-4.95 0.733-1.68 1.483-3.33 2.25-4.95 0.767-1.613 1.457-3.13 2.07-4.55 0.62-1.413 1.03-2.653 1.23-3.72v0c-0.667-0.467-1.383-0.7-2.15-0.7v0c-0.633 0-1.273 0.207-1.92 0.62-0.653 0.42-1.263 1.113-1.83 2.08v0l-0.35-0.15c0.033-1.7 0.4-3.26 1.1-4.68 0.7-1.413 1.623-2.547 2.77-3.4 1.153-0.847 2.413-1.27 3.78-1.27v0c1.567 0 3.183 0.683 4.85 2.05 1.667 1.367 3.207 3.617 4.62 6.75 1.42 3.133 2.563 7.367 3.43 12.7v0c1.267-4.1 2.633-7.533 4.1-10.3 1.467-2.767 2.977-4.967 4.53-6.6 1.547-1.633 3.077-2.81 4.59-3.53 1.52-0.713 2.963-1.07 4.33-1.07v0c1.7 0 3.227 0.417 4.58 1.25 1.347 0.833 2.41 1.883 3.19 3.15 0.787 1.267 1.18 2.533 1.18 3.8v0c-0.833-0.233-1.657-0.4-2.47-0.5-0.82-0.1-1.613-0.15-2.38-0.15v0c-0.767 0-1.5 0.05-2.2 0.15v0c-0.3 1.533-0.617 3.24-0.95 5.12-0.333 1.887-0.623 3.78-0.87 5.68-0.253 1.9-0.38 3.65-0.38 5.25v0c0 1.633 0.167 2.967 0.5 4 0.333 1.033 0.917 1.55 1.75 1.55v0c0.533 0 1.077-0.233 1.63-0.7 0.547-0.467 0.953-1.183 1.22-2.15v0l0.35 0.15c0 2.2-0.367 4.023-1.1 5.47-0.733 1.453-1.673 2.54-2.82 3.26-1.153 0.713-2.33 1.07-3.53 1.07z" fill="#000000" fill-rule="nonzero" stroke="none" stroke-width="1" stroke-linecap="butt" stroke-linejoin="miter" stroke-miterlimit="10" stroke-dasharray="" stroke-dashoffset="0" font-family="none" font-weight="none" font-size="none" text-anchor="none" style="mix-blend-mode: normal" data-fill-palette-color="primary" opacity="1"></path></g></svg></g></svg></g></svg></g></svg></g><g transform="matrix(1,0,0,1,0,4.075995554484933)"><svg viewBox="0 0 208.88758857579367 208.88758857579367" height="208.88758857579367" width="208.88758857579367"><g><svg></svg></g><g id="icon-0"><svg viewBox="0 0 208.88758857579367 208.88758857579367" height="208.88758857579367" width="208.88758857579367"><g><path d="M0 104.444c0-57.683 46.761-104.444 104.444-104.444 57.683 0 104.444 46.761 104.444 104.444 0 57.683-46.761 104.444-104.444 104.444-57.683 0-104.444-46.761-104.444-104.444zM104.444 199.726c52.623 0 95.282-42.659 95.282-95.282 0-52.623-42.659-95.282-95.282-95.282-52.623 0-95.282 42.659-95.282 95.282 0 52.623 42.659 95.282 95.282 95.282z" data-fill-palette-color="accent" fill="#000000" stroke="transparent"></path><ellipse rx="103.39935634501786" ry="103.39935634501786" cx="104.44379428789684" cy="104.44379428789684" fill="#000000" stroke="transparent" stroke-width="0" fill-opacity="1" data-fill-palette-color="accent"></ellipse></g><g transform="matrix(1,0,0,1,56.7566813857693,49.57556320756656)"><svg viewBox="0 0 95.37422580425508 109.73646216066055" height="109.73646216066055" width="95.37422580425508"><g><svg xmlns="http://www.w3.org/2000/svg" data-name="Layer 1" viewBox="7.5 1.0999999999999996 85 97.80000000000001" x="0" y="0" height="109.73646216066055" width="95.37422580425508" class="icon-dxe-0" data-fill-palette-color="quaternary" id="dxe-0"><path d="M83 27.1H73.91V6.6A3.5 3.5 0 1 0 66.91 6.6V53H33.09V6.6A3.5 3.5 0 0 0 26.09 6.6V27.1H17A9.51 9.51 0 0 0 7.5 36.6V73.91A9.51 9.51 0 0 0 17 83.41H37.43V91.9H31.51A3.5 3.5 0 1 0 31.51 98.9H68.51A3.5 3.5 0 0 0 68.51 91.9H62.57V83.41H83A9.51 9.51 0 0 0 92.5 73.91V36.6A9.51 9.51 0 0 0 83 27.1M17 34.1H26.13V53H22.2A3.5 3.5 0 0 0 22.2 60H77.8A3.5 3.5 0 0 0 77.8 53H73.91V34.1H83A2.5 2.5 0 0 1 85.5 36.6V65.37H14.46V36.6A2.5 2.5 0 0 1 17 34.1M55.57 91.9H44.43V83.41H55.57ZM83 76.41H17A2.5 2.5 0 0 1 14.5 73.91V72.37H85.54V73.91A2.5 2.5 0 0 1 83 76.41" fill="#ffffff" data-fill-palette-color="quaternary"></path><path d="M40.21 52.07H59.79A3.5 3.5 0 0 0 63.29 48.57V48.24A13.3 13.3 0 0 0 55.88 36.34 8.49 8.49 0 1 0 44.11 36.34 13.3 13.3 0 0 0 36.7 48.24V48.57A3.5 3.5 0 0 0 40.21 52.07M44.57 45.07A6.29 6.29 0 0 1 55.44 45.07ZM50 28.74A1.49 1.49 0 1 1 48.51 30.23 1.49 1.49 0 0 1 50 28.74" fill="#ffffff" data-fill-palette-color="quaternary"></path><path d="M53.5 15.61V4.6A3.5 3.5 0 1 0 46.5 4.6V15.6A3.5 3.5 0 0 0 53.5 15.6Z" fill="#ffffff" data-fill-palette-color="quaternary"></path><path d="M63.5 6.6A3.5 3.5 0 1 0 56.5 6.6V13.6A3.5 3.5 0 0 0 63.5 13.6Z" fill="#ffffff" data-fill-palette-color="quaternary"></path><path d="M40 17.11A3.5 3.5 0 0 0 43.5 13.61V6.61A3.5 3.5 0 1 0 36.5 6.61V13.61A3.5 3.5 0 0 0 40 17.11" fill="#ffffff" data-fill-palette-color="quaternary"></path></svg></g></svg></g></svg></g></svg></g></svg></g><defs></defs></svg><rect width="395.52" height="131.58613454999" fill="none" stroke="none" visibility="hidden"></rect></g></svg></g></svg>