<svg width="658" height="264" viewBox="0 0 658 264" fill="none" xmlns="http://www.w3.org/2000/svg">
<path d="M0 113.141C0 123.097 0.170956 123.281 4.95773 123.281C8.37685 123.281 10.0864 122.175 10.7702 119.594C11.2831 117.381 13.1636 115.906 15.2151 115.906C18.6342 115.906 18.8052 116.828 18.8052 133.237C18.8052 149.094 18.4633 150.753 15.3861 151.859C13.1636 152.597 11.9669 154.625 11.9669 157.575C11.9669 162 12.1379 162 28.2078 162H44.4486V156.653C44.4486 152.966 43.4229 151.122 41.0295 150.384C37.9523 149.462 37.6103 147.803 37.6103 132.684C37.6103 116.091 37.6103 115.906 41.7133 115.906C44.4486 115.906 46.3291 117.197 47.0129 119.594C47.6968 122.175 49.5773 123.281 53.1674 123.281C58.296 123.281 58.296 123.281 57.7832 113.509L57.2703 103.922L28.7206 103.369L0 103V113.141Z" fill="#111827"/>
<path d="M67 108.347C67 112.034 68.0216 113.878 70.4054 114.616C73.4703 115.537 73.8108 117.197 73.8108 132.316C73.8108 147.066 73.4703 149.278 70.4054 150.937C68.3622 152.044 67 154.809 67 157.391C67 162 67.1703 162 81.473 162C95.6054 162 95.9459 162 95.9459 157.575C95.9459 154.994 95.2649 152.412 94.2432 151.859C93.3919 151.306 92.5405 147.803 92.5405 144.3C92.5405 138.216 92.7108 138.031 99.3514 138.031C105.992 138.031 106.162 138.216 106.162 144.3C106.162 148.172 105.141 150.937 103.608 151.675C102.246 152.228 101.054 154.809 101.054 157.391C101.054 162 101.224 162 115.527 162H130V156.469C130 152.781 129.149 150.937 127.446 150.937C125.403 150.937 124.892 147.619 124.892 132.5C124.892 117.381 125.403 114.062 127.446 114.062C129.149 114.062 130 112.219 130 108.531V103H115.697H101.224L102.076 107.978C102.586 110.744 103.778 113.509 104.63 114.247C105.651 114.8 106.162 117.381 105.822 119.778C105.481 123.466 104.119 124.387 99.0108 124.756C92.8811 125.309 92.5405 125.125 92.5405 119.778C92.5405 116.644 93.3919 114.062 94.2432 114.062C95.2649 114.062 95.9459 111.481 95.9459 108.531V103H81.473H67V108.347Z" fill="#111827"/>
<path d="M139 108.347C139 112.034 140.014 113.878 142.379 114.616C145.421 115.537 145.759 117.197 145.759 133.053C145.759 148.909 145.421 150.569 142.379 151.491C140.014 152.044 139 154.072 139 157.206V162H163.5H188V152.781C188 144.116 187.662 143.562 183.776 143.562C181.41 143.562 179.045 144.853 178.538 146.328C177.862 148.172 175.159 149.094 170.934 149.094C164.683 149.094 164.345 148.725 164.345 143.562C164.345 138.4 164.852 138.031 170.259 138.031C175.834 138.031 176.172 137.662 176.172 131.578C176.172 125.494 175.834 125.125 170.259 125.125C165.021 125.125 164.345 124.572 164.345 120.516C164.345 116.459 165.021 115.906 170.259 115.906C173.976 115.906 176.679 117.012 177.186 118.672C177.862 120.331 180.397 121.437 183.1 121.437C187.831 121.437 188 121.069 188 112.219V103H163.5H139V108.347Z" fill="#111827"/>
<path d="M318.774 114.062C318.774 125.125 318.774 125.125 323.919 125.125C328 125.125 329.242 124.203 329.774 120.884C330.306 117.381 331.548 116.828 339.177 116.275L348.048 115.722L332.613 131.947C318.597 146.512 317 148.909 317 155.178V162H344.5H372V150.937C372 139.875 372 139.875 366.855 139.875C362.774 139.875 361.532 140.797 361 143.931C360.468 147.619 359.226 148.172 350.71 148.725L340.952 149.278L355.677 133.975C369.339 119.594 370.226 118.119 370.226 110.744V103H344.5H318.774V114.062Z" fill="#111827"/>
<path d="M392.974 108.531C392.974 112.219 393.829 114.062 395.539 114.062C399.132 114.062 398.789 116.091 392.632 134.528C389.039 145.406 386.132 150.937 384.079 151.491C382.197 152.044 381 154.072 381 157.206C381 162 381.171 162 392.974 162C404.605 162 404.947 161.816 404.947 157.575C404.947 154.994 404.263 152.412 403.237 151.859C399.132 149.094 402.211 147.25 410.934 147.25C419.658 147.25 422.737 149.094 418.632 151.859C417.776 152.412 416.921 154.994 416.921 157.575C416.921 162 417.263 162 431.461 162C445.658 162 446 161.816 446 157.575C446 155.178 444.632 152.044 442.75 150.753C440.868 149.278 437.105 139.137 433.171 125.494L426.5 103H409.737H392.974V108.531ZM414.526 128.444C415.553 134.159 415.382 134.344 410.25 134.344H404.947L407.513 127.706C408.882 124.019 410.079 120.516 410.079 119.962C410.079 116.644 413.671 123.466 414.526 128.444Z" fill="#111827"/>
<path d="M455 108.347C455 112.034 456.022 113.878 458.405 114.616C461.47 115.537 461.811 117.197 461.811 132.316C461.811 147.066 461.47 149.278 458.405 150.937C456.362 152.044 455 154.809 455 157.391C455 162 455.17 162 469.473 162C483.605 162 483.946 162 483.946 157.575C483.946 154.994 483.265 152.412 482.243 151.859C481.392 151.306 480.541 147.803 480.541 144.3C480.541 138.216 480.711 138.031 487.351 138.031C493.992 138.031 494.162 138.216 494.162 144.484C494.162 147.987 493.481 150.937 492.459 150.937C491.608 150.937 490.757 153.334 490.757 156.469V162H504.378H518V156.469C518 152.781 517.149 150.937 515.446 150.937C513.403 150.937 512.892 147.619 512.892 132.5C512.892 117.381 513.403 114.062 515.446 114.062C517.149 114.062 518 112.219 518 108.531V103H504.378H490.757V108.531C490.757 111.481 491.608 114.062 492.63 114.062C493.651 114.062 494.162 116.275 493.822 119.041C493.311 123.466 492.459 124.203 487.011 124.756C480.881 125.309 480.541 125.125 480.541 119.778C480.541 116.644 481.392 114.062 482.243 114.062C483.265 114.062 483.946 111.481 483.946 108.531V103H469.473H455V108.347Z" fill="#111827"/>
<path d="M527 107.776C527 111.689 527.843 113.553 529.529 113.553C531.551 113.553 532.057 116.907 532.057 132.186C532.057 147.466 531.551 150.82 529.529 150.82C527.843 150.82 527 152.683 527 156.41V162H540.486C553.634 162 553.971 161.814 553.971 157.528C553.971 154.919 553.297 152.311 552.286 151.752C551.443 151.193 550.6 147.652 550.6 144.112C550.6 136.286 553.971 135.727 558.186 142.807C560.546 146.72 560.714 148.398 559.197 151.193C558.186 153.056 557.343 156.224 557.343 158.273C557.343 161.627 558.354 162 571.671 162H586V156.41C586 153.242 585.326 150.82 584.483 150.82C583.64 150.82 580.943 146.907 578.414 142.248L573.863 133.677L577.403 129.578C582.46 123.615 582.123 113.553 576.56 107.776C572.514 103.677 570.829 103.304 549.589 102.745L527 102V107.776ZM558.354 116.161C560.883 118.398 561.22 119.516 559.703 122.311C558.691 124.174 556.163 125.851 554.14 126.224C551.106 126.783 550.6 126.037 550.6 120.261C550.6 112.994 552.791 111.689 558.354 116.161Z" fill="#111827"/>
<path d="M606.919 108.531C606.919 112.403 607.77 114.062 609.643 114.062C611.516 114.062 612.027 114.984 611.176 117.197C610.495 119.041 607.6 127.337 604.876 135.634C601.811 144.669 598.746 150.937 597.384 150.937C595.851 150.937 595 152.966 595 156.469V162H606.068C616.624 162 617.135 161.816 617.135 157.575C617.135 154.994 616.454 152.412 615.432 151.859C614.581 151.306 613.73 150.016 613.73 148.909C613.73 146.697 631.949 146.697 633.311 149.094C633.822 150.016 633.141 150.937 631.778 150.937C629.905 150.937 629.054 152.597 629.054 156.469V162H643.527C657.83 162 658 162 658 157.391C658 154.809 656.808 152.228 655.446 151.675C653.914 150.937 649.997 140.797 645.911 126.784L639.1 103H622.924H606.919V108.531ZM626.841 126.969C628.543 134.344 628.543 134.344 623.776 134.344C618.327 134.344 617.986 133.606 620.711 125.309C623.265 117.75 624.627 118.119 626.841 126.969Z" fill="#111827"/>
<path d="M251.024 1.41542C249.375 2.71983 247.727 7.63645 246.854 14.3592C246.466 17.3694 246.757 18.0718 248.309 18.5734C249.763 19.0751 250.442 20.4799 250.927 24.4934C251.8 30.7145 255.776 37.2365 258.685 36.9355C260.237 36.7348 260.722 37.4372 260.916 40.3471C261.303 45.063 258.782 47.3708 251.8 48.4745C247.242 49.1769 245.69 49.9796 243.072 52.9898C241.229 54.9966 239.775 57.204 239.775 57.8061C239.775 58.5085 238.902 59.8128 237.835 60.8162C235.12 63.4251 235.217 68.8434 238.126 71.6529C239.387 72.8569 241.132 76.2685 242.102 79.1783C244.526 87.2055 242.975 89.5133 230.562 95.8346C219.797 101.353 213.688 102.557 209.13 100.149C204.863 97.9418 199.529 97.139 198.269 98.6441C197.396 99.8482 196.62 106.671 197.202 108.979C197.299 109.481 197.493 110.384 197.59 110.986C197.978 113.093 199.432 116.103 200.79 117.709C201.566 118.712 201.954 120.217 201.566 121.12C201.178 122.224 201.663 123.328 202.826 124.13C204.669 125.535 208.16 135.168 207.578 137.174C207.093 138.88 228.137 159.45 231.144 160.152C232.598 160.553 234.247 161.356 234.829 161.958C236.477 164.065 237.835 175.604 237.835 187.745C237.835 200.589 238.611 205.907 242.199 219.854C243.848 226.376 244.817 232.898 245.108 240.423C245.593 253.066 247.048 261.996 248.793 263.2C250.539 264.405 257.036 264.204 257.812 262.899C259.073 260.692 258.588 252.464 256.939 249.855C254.224 245.641 251.897 233.199 252.091 224.369C252.575 201.191 252.963 192.863 253.448 192.361C253.739 191.96 255 194.97 256.261 198.983C257.521 202.997 260.819 211.024 263.631 216.844C266.54 222.864 269.159 229.888 269.74 233.299C271.001 240.524 271.098 249.956 269.934 249.956C268.771 249.956 267.995 256.979 269.062 257.581C269.546 257.882 269.643 258.986 269.352 259.99C268.092 264.204 277.402 265.107 279.535 260.993C280.117 259.99 280.505 257.983 280.505 256.578C280.505 255.173 280.893 253.869 281.378 253.468C281.862 253.167 282.25 249.855 282.25 246.143C282.153 241.226 281.766 238.918 280.505 237.413C278.371 234.905 277.014 228.383 275.753 214.436C274.88 204.903 274.201 202.395 270.322 193.665C265.473 182.829 265.086 179.518 267.51 170.587L269.062 164.868L274.977 164.266C281.475 163.564 288.748 161.155 291.269 158.948C292.045 158.246 293.112 157.644 293.5 157.644C293.985 157.644 295.924 156.239 297.961 154.633C299.997 152.928 302.228 151.623 303.003 151.623C303.779 151.623 305.331 150.62 306.495 149.315C309.016 146.506 308.434 143.295 304.264 136.773C302.615 134.164 301.452 130.753 301.161 127.843C299.803 111.989 298.639 102.858 297.379 99.2462C296.603 97.0387 296.021 91.9214 296.021 87.9078V80.6834L299.997 77.8739C306.204 73.3587 306.495 71.3519 301.84 65.8332C300.87 64.7295 299.609 62.0203 298.93 59.8129C297.476 55.1972 296.506 54.2942 292.918 54.2942C291.56 54.2942 288.069 53.1905 285.16 51.7857C282.347 50.381 279.341 49.2772 278.468 49.2772C277.596 49.2772 276.141 48.3742 275.171 47.2705C273.522 45.364 273.522 45.1633 275.753 40.5477C277.305 37.1362 278.08 36.2331 278.371 37.5376C279.244 41.5511 280.99 38.1396 282.056 30.1125C283.705 18.9748 282.541 14.2589 277.111 8.53953C270.419 1.71646 255.97 -2.29713 251.024 1.41542ZM287.293 95.634C287.875 100.45 290.299 110.685 292.627 118.411C295.051 126.037 296.991 133.462 296.991 134.867C296.991 136.171 297.67 139.282 298.446 141.589C300.191 146.606 300.288 149.616 298.833 149.616C295.051 149.616 284.093 131.756 280.214 119.515C279.438 117.006 278.177 113.394 277.402 111.488C275.947 108.176 276.044 107.474 278.565 98.9452C280.117 93.9282 281.959 88.1085 282.832 85.901C283.608 83.6936 284.384 80.7837 284.481 79.379C284.675 76.5695 285.645 82.2888 287.293 95.634ZM218.731 106.872C223.87 106.872 228.137 106.972 228.137 107.073C228.137 107.273 226.78 108.176 225.131 109.079C221.349 111.086 212.039 111.086 207.384 109.079C203.214 107.273 202.535 104.765 206.609 106.069C208.063 106.571 213.494 106.972 218.731 106.872ZM304.749 147.309C304.749 151.021 302.422 149.516 302.034 145.603C301.743 142.593 301.84 142.392 303.197 143.496C304.07 144.298 304.749 146.004 304.749 147.309Z" fill="#111827"/>
</svg>
