<svg width="260" height="101" viewBox="0 0 260 101" fill="none" xmlns="http://www.w3.org/2000/svg">
<path d="M0 42.9531C0 46.8344 0.0677929 46.9063 1.966 46.9063C3.32185 46.9063 3.99978 46.475 4.27096 45.4688C4.47433 44.6063 5.22006 44.0313 6.03357 44.0313C7.38943 44.0313 7.45722 44.3906 7.45722 50.7875C7.45722 56.9688 7.32164 57.6156 6.10137 58.0469C5.22006 58.3344 4.74551 59.125 4.74551 60.275C4.74551 62 4.8133 62 11.1858 62H17.6262V59.9156C17.6262 58.4781 17.2194 57.7594 16.2703 57.4719C15.05 57.1125 14.9144 56.4656 14.9144 50.5719C14.9144 44.1031 14.9144 44.0313 16.5415 44.0313C17.6262 44.0313 18.3719 44.5344 18.6431 45.4688C18.9142 46.475 19.66 46.9063 21.0836 46.9063C23.1174 46.9063 23.1174 46.9063 22.914 43.0969L22.7106 39.3594L11.3892 39.1438L0 39V42.9531Z" fill="white"/>
<path d="M26 41.0844C26 42.5219 26.4054 43.2406 27.3514 43.5281C28.5676 43.8875 28.7027 44.5344 28.7027 50.4281C28.7027 56.1781 28.5676 57.0406 27.3514 57.6875C26.5405 58.1188 26 59.1969 26 60.2031C26 62 26.0676 62 31.7432 62C37.3514 62 37.4865 62 37.4865 60.275C37.4865 59.2688 37.2162 58.2625 36.8108 58.0469C36.473 57.8313 36.1351 56.4656 36.1351 55.1C36.1351 52.7281 36.2027 52.6563 38.8378 52.6563C41.473 52.6563 41.5405 52.7281 41.5405 55.1C41.5405 56.6094 41.1351 57.6875 40.527 57.975C39.9865 58.1906 39.5135 59.1969 39.5135 60.2031C39.5135 62 39.5811 62 45.2568 62H51V59.8438C51 58.4063 50.6622 57.6875 49.9865 57.6875C49.1757 57.6875 48.973 56.3938 48.973 50.5C48.973 44.6063 49.1757 43.3125 49.9865 43.3125C50.6622 43.3125 51 42.5938 51 41.1563V39H45.3243H39.5811L39.9189 40.9406C40.1216 42.0188 40.5946 43.0969 40.9324 43.3844C41.3378 43.6 41.5405 44.6063 41.4054 45.5406C41.2703 46.9781 40.7297 47.3375 38.7027 47.4813C36.2703 47.6969 36.1351 47.625 36.1351 45.5406C36.1351 44.3188 36.473 43.3125 36.8108 43.3125C37.2162 43.3125 37.4865 42.3063 37.4865 41.1563V39H31.7432H26V41.0844Z" fill="white"/>
<path d="M55 41.0844C55 42.5219 55.4138 43.2406 56.3793 43.5281C57.6207 43.8875 57.7586 44.5344 57.7586 50.7156C57.7586 56.8969 57.6207 57.5438 56.3793 57.9031C55.4138 58.1188 55 58.9094 55 60.1313V62H65H75V58.4063C75 55.0281 74.8621 54.8125 73.2759 54.8125C72.3103 54.8125 71.3448 55.3156 71.1379 55.8906C70.8621 56.6094 69.7586 56.9688 68.0345 56.9688C65.4828 56.9688 65.3448 56.825 65.3448 54.8125C65.3448 52.8 65.5517 52.6563 67.7586 52.6563C70.0345 52.6563 70.1724 52.5125 70.1724 50.1406C70.1724 47.7688 70.0345 47.625 67.7586 47.625C65.6207 47.625 65.3448 47.4094 65.3448 45.8281C65.3448 44.2469 65.6207 44.0313 67.7586 44.0313C69.2759 44.0313 70.3793 44.4625 70.5862 45.1094C70.8621 45.7563 71.8966 46.1875 73 46.1875C74.931 46.1875 75 46.0438 75 42.5938V39H65H55V41.0844Z" fill="white"/>
<path d="M126.677 43.3125C126.677 47.625 126.677 47.625 128.642 47.625C130.2 47.625 130.674 47.2656 130.877 45.9719C131.081 44.6063 131.555 44.3906 134.468 44.175L137.855 43.9594L131.961 50.2844C126.61 55.9625 126 56.8969 126 59.3406V62H136.5H147V57.6875C147 53.375 147 53.375 145.035 53.375C143.477 53.375 143.003 53.7344 142.8 54.9563C142.597 56.3938 142.123 56.6094 138.871 56.825L135.145 57.0406L140.768 51.075C145.984 45.4688 146.323 44.8938 146.323 42.0188V39H136.5H126.677V43.3125Z" fill="white"/>
<path d="M154.789 41.1563C154.789 42.5938 155.132 43.3125 155.816 43.3125C157.253 43.3125 157.116 44.1031 154.653 51.2906C153.216 55.5313 152.053 57.6875 151.232 57.9031C150.479 58.1188 150 58.9094 150 60.1313C150 62 150.068 62 154.789 62C159.442 62 159.579 61.9281 159.579 60.275C159.579 59.2688 159.305 58.2625 158.895 58.0469C157.253 56.9688 158.484 56.25 161.974 56.25C165.463 56.25 166.695 56.9688 165.053 58.0469C164.711 58.2625 164.368 59.2688 164.368 60.275C164.368 62 164.505 62 170.184 62C175.863 62 176 61.9281 176 60.275C176 59.3406 175.453 58.1188 174.7 57.6156C173.947 57.0406 172.442 53.0875 170.868 47.7688L168.2 39H161.495H154.789V41.1563ZM163.411 48.9188C163.821 51.1469 163.753 51.2188 161.7 51.2188H159.579L160.605 48.6313C161.153 47.1938 161.632 45.8281 161.632 45.6125C161.632 44.3188 163.068 46.9781 163.411 48.9188Z" fill="white"/>
<path d="M180 41.0844C180 42.5219 180.405 43.2406 181.351 43.5281C182.568 43.8875 182.703 44.5344 182.703 50.4281C182.703 56.1781 182.568 57.0406 181.351 57.6875C180.541 58.1188 180 59.1969 180 60.2031C180 62 180.068 62 185.743 62C191.351 62 191.486 62 191.486 60.275C191.486 59.2688 191.216 58.2625 190.811 58.0469C190.473 57.8313 190.135 56.4656 190.135 55.1C190.135 52.7281 190.203 52.6563 192.838 52.6563C195.473 52.6563 195.541 52.7281 195.541 55.1719C195.541 56.5375 195.27 57.6875 194.865 57.6875C194.527 57.6875 194.189 58.6219 194.189 59.8438V62H199.595H205V59.8438C205 58.4063 204.662 57.6875 203.986 57.6875C203.176 57.6875 202.973 56.3938 202.973 50.5C202.973 44.6063 203.176 43.3125 203.986 43.3125C204.662 43.3125 205 42.5938 205 41.1563V39H199.595H194.189V41.1563C194.189 42.3063 194.527 43.3125 194.932 43.3125C195.338 43.3125 195.541 44.175 195.405 45.2531C195.203 46.9781 194.865 47.2656 192.703 47.4813C190.27 47.6969 190.135 47.625 190.135 45.5406C190.135 44.3188 190.473 43.3125 190.811 43.3125C191.216 43.3125 191.486 42.3063 191.486 41.1563V39H185.743H180V41.0844Z" fill="white"/>
<path d="M208 41.2143C208 42.7143 208.343 43.4286 209.029 43.4286C209.851 43.4286 210.057 44.7143 210.057 50.5714C210.057 56.4286 209.851 57.7143 209.029 57.7143C208.343 57.7143 208 58.4286 208 59.8571V62H213.486C218.834 62 218.971 61.9286 218.971 60.2857C218.971 59.2857 218.697 58.2857 218.286 58.0714C217.943 57.8571 217.6 56.5 217.6 55.1429C217.6 52.1429 218.971 51.9286 220.686 54.6429C221.646 56.1429 221.714 56.7857 221.097 57.8571C220.686 58.5714 220.343 59.7857 220.343 60.5714C220.343 61.8571 220.754 62 226.171 62H232V59.8571C232 58.6429 231.726 57.7143 231.383 57.7143C231.04 57.7143 229.943 56.2143 228.914 54.4286L227.063 51.1429L228.503 49.5714C230.56 47.2857 230.423 43.4286 228.16 41.2143C226.514 39.6429 225.829 39.5 217.189 39.2857L208 39V41.2143ZM220.754 44.4286C221.783 45.2857 221.92 45.7143 221.303 46.7857C220.891 47.5 219.863 48.1429 219.04 48.2857C217.806 48.5 217.6 48.2143 217.6 46C217.6 43.2143 218.491 42.7143 220.754 44.4286Z" fill="white"/>
<path d="M239.73 41.1563C239.73 42.6656 240.068 43.3125 240.811 43.3125C241.554 43.3125 241.757 43.6719 241.419 44.5344C241.149 45.2531 240 48.4875 238.919 51.7219C237.703 55.2438 236.486 57.6875 235.946 57.6875C235.338 57.6875 235 58.4781 235 59.8438V62H239.392C243.581 62 243.784 61.9281 243.784 60.275C243.784 59.2688 243.514 58.2625 243.108 58.0469C242.77 57.8313 242.432 57.3281 242.432 56.8969C242.432 56.0344 249.662 56.0344 250.203 56.9688C250.405 57.3281 250.135 57.6875 249.595 57.6875C248.851 57.6875 248.514 58.3344 248.514 59.8438V62H254.257C259.932 62 260 62 260 60.2031C260 59.1969 259.527 58.1906 258.986 57.975C258.378 57.6875 256.824 53.7344 255.203 48.2719L252.5 39H246.081H239.73V41.1563ZM247.635 48.3438C248.311 51.2188 248.311 51.2188 246.419 51.2188C244.257 51.2188 244.122 50.9313 245.203 47.6969C246.216 44.75 246.757 44.8938 247.635 48.3438Z" fill="white"/>
<path d="M98.9282 0.541512C98.2895 1.04055 97.6509 2.92153 97.3128 5.49348C97.1625 6.6451 97.2752 6.91382 97.8763 7.10576C98.4398 7.29769 98.7028 7.83511 98.8906 9.3706C99.2287 11.7506 100.769 14.2458 101.896 14.1306C102.497 14.0539 102.685 14.3226 102.76 15.4358C102.91 17.24 101.934 18.1229 99.2287 18.5452C97.463 18.8139 96.8619 19.121 95.8476 20.2726C95.1338 21.0404 94.5703 21.8849 94.5703 22.1152C94.5703 22.3839 94.2322 22.8829 93.819 23.2668C92.7671 24.2649 92.8047 26.3378 93.9317 27.4127C94.4201 27.8733 95.0963 29.1785 95.4719 30.2917C96.4111 33.3627 95.8101 34.2456 91.0014 36.664C86.8314 38.7753 84.4646 39.236 82.699 38.3147C81.046 37.4701 78.9798 37.163 78.4914 37.7389C78.1533 38.1995 77.8528 40.8098 78.0782 41.6928C78.1157 41.8847 78.1909 42.2302 78.2284 42.4605C78.3787 43.2666 78.9422 44.4183 79.4682 45.0325C79.7687 45.4163 79.919 45.9921 79.7687 46.3376C79.6184 46.7599 79.8063 47.1821 80.2571 47.4892C80.9709 48.0267 82.3233 51.7119 82.0979 52.4796C81.9101 53.1322 90.0622 61.0016 91.2268 61.2703C91.7903 61.4239 92.429 61.731 92.6544 61.9613C93.293 62.7674 93.819 67.182 93.819 71.8268C93.819 76.7404 94.1195 78.7749 95.5095 84.1108C96.1482 86.606 96.5238 89.1011 96.6365 91.9802C96.8244 96.817 97.3879 100.233 98.0641 100.694C98.7403 101.155 101.257 101.078 101.558 100.579C102.046 99.7344 101.858 96.5867 101.22 95.5886C100.168 93.9763 99.2663 89.2163 99.3414 85.8382C99.5292 76.9707 99.6795 73.7846 99.8674 73.5926C99.9801 73.4391 100.468 74.5907 100.957 76.1262C101.445 77.6617 102.722 80.7327 103.812 82.9592C104.939 85.2624 105.953 87.9495 106.179 89.2547C106.667 92.0186 106.705 95.627 106.254 95.627C105.803 95.627 105.502 98.3141 105.916 98.5444C106.104 98.6596 106.141 99.0818 106.028 99.4657C105.54 101.078 109.147 101.423 109.973 99.8496C110.198 99.4657 110.349 98.698 110.349 98.1605C110.349 97.6231 110.499 97.1241 110.687 96.9705C110.875 96.8554 111.025 95.5886 111.025 94.1683C110.987 92.2873 110.837 91.4044 110.349 90.8286C109.522 89.8689 108.996 87.3737 108.508 82.0379C108.17 78.3911 107.907 77.4314 106.404 74.0917C104.526 69.9458 104.375 68.6791 105.315 65.2626L105.916 63.0745L108.207 62.8442C110.724 62.5755 113.542 61.6542 114.519 60.8097C114.819 60.5409 115.232 60.3106 115.383 60.3106C115.571 60.3106 116.322 59.7732 117.111 59.159C117.9 58.5064 118.764 58.0074 119.064 58.0074C119.365 58.0074 119.966 57.6235 120.417 57.1245C121.394 56.0496 121.168 54.8212 119.553 52.3261C118.914 51.328 118.463 50.0228 118.351 48.9096C117.825 42.8444 117.374 39.3511 116.885 37.9692C116.585 37.1247 116.36 35.1669 116.36 33.6314V30.8675L117.9 29.7927C120.304 28.0652 120.417 27.2975 118.614 25.1862C118.238 24.7639 117.75 23.7275 117.487 22.883C116.923 21.1171 116.547 20.7716 115.157 20.7716C114.631 20.7716 113.279 20.3494 112.152 19.812C111.062 19.2745 109.898 18.8523 109.56 18.8523C109.222 18.8523 108.658 18.5068 108.282 18.0845C107.644 17.3552 107.644 17.2784 108.508 15.5126C109.109 14.2074 109.41 13.8619 109.522 14.361C109.86 15.8965 110.537 14.5913 110.95 11.5203C111.588 7.25931 111.138 5.4551 109.034 3.26702C106.442 0.656682 100.844 -0.87882 98.9282 0.541512ZM112.978 36.5872C113.204 38.4298 114.143 42.3453 115.045 45.3012C115.984 48.2186 116.735 51.0593 116.735 51.5967C116.735 52.0957 116.998 53.2857 117.299 54.1686C117.975 56.088 118.012 57.2396 117.449 57.2396C115.984 57.2396 111.739 50.4067 110.236 45.7234C109.935 44.7637 109.447 43.3818 109.147 42.6524C108.583 41.3857 108.621 41.1169 109.597 37.854C110.198 35.9347 110.912 33.7082 111.25 32.8637C111.551 32.0191 111.851 30.9059 111.889 30.3685C111.964 29.2936 112.34 31.4817 112.978 36.5872ZM86.4182 40.8866C88.4092 40.8866 90.0622 40.925 90.0622 40.9634C90.0622 41.0402 89.5363 41.3857 88.8976 41.7311C87.4325 42.4989 83.826 42.4989 82.0228 41.7311C80.4074 41.0402 80.1444 40.0805 81.7222 40.5795C82.2857 40.7715 84.3895 40.925 86.4182 40.8866ZM119.741 56.3567C119.741 57.7771 118.839 57.2012 118.689 55.7041C118.576 54.5525 118.614 54.4757 119.14 54.898C119.478 55.2051 119.741 55.8577 119.741 56.3567Z" fill="white"/>
</svg>
